<svg width="64" height="64" viewBox="0 0 64 64" fill="none" xmlns="http://www.w3.org/2000/svg">
<circle cx="32" cy="32" r="32" fill="#F7EBF9"/>
<path d="M41.1428 32.5714C41.1428 32.4502 41.0947 32.3339 41.009 32.2482C40.9232 32.1624 40.8069 32.1143 40.6857 32.1143H23.3143C23.193 32.1143 23.0768 32.1624 22.991 32.2482C22.9053 32.3339 22.8571 32.4502 22.8571 32.5714V41.2571H41.1428V32.5714ZM32 38.5143C31.515 38.5143 31.0499 38.3216 30.707 37.9787C30.3641 37.6358 30.1714 37.1707 30.1714 36.6857C30.1714 36.2007 30.3641 35.7356 30.707 35.3927C31.0499 35.0498 31.515 34.8571 32 34.8571V35.7714C31.8192 35.7714 31.6424 35.825 31.492 35.9255C31.3417 36.0259 31.2245 36.1687 31.1553 36.3358C31.0861 36.5029 31.068 36.6867 31.1033 36.8641C31.1385 37.0414 31.2256 37.2043 31.3535 37.3322C31.4814 37.4601 31.6443 37.5471 31.8216 37.5824C31.999 37.6177 32.1828 37.5996 32.3499 37.5304C32.5169 37.4612 32.6597 37.344 32.7602 37.1936C32.8607 37.0433 32.9143 36.8665 32.9143 36.6857H33.8286C33.8286 37.1707 33.6359 37.6358 33.293 37.9787C32.9501 38.3216 32.485 38.5143 32 38.5143V38.5143Z" fill="#B84DC5"/>
<path d="M32.1234 22.953C32.0429 22.9774 31.957 22.9774 31.8766 22.953L28.1966 21.9016L27.9451 23.8856H36.0548L35.8034 21.9016L32.1234 22.953Z" fill="#B84DC5"/>
<path d="M21.1109 43.0857C21.0576 42.9391 21.0298 42.7845 21.0286 42.6285V42.1714C21.0293 41.9291 21.1258 41.697 21.2972 41.5257C21.4685 41.3544 21.7006 41.2578 21.9429 41.2571V39.9314C21.6091 39.9997 21.2949 40.1416 21.0231 40.3469C20.7513 40.5523 20.5289 40.8157 20.372 41.1181C20.2151 41.4204 20.1278 41.754 20.1164 42.0944C20.1051 42.4349 20.1699 42.7735 20.3063 43.0857H21.1109Z" fill="#B84DC5"/>
<path d="M19.2 44H44.8V44.9143H19.2V44Z" fill="#B84DC5"/>
<path d="M42.9714 42.1714V42.6285C42.9702 42.7845 42.9424 42.9391 42.8891 43.0857H43.6937C43.8189 42.7971 43.8842 42.486 43.8857 42.1714C43.8844 41.6449 43.7019 41.1348 43.3689 40.7269C43.0359 40.319 42.5728 40.0381 42.0571 39.9314V41.2571C42.2994 41.2578 42.5315 41.3544 42.7028 41.5257C42.8741 41.697 42.9707 41.9291 42.9714 42.1714Z" fill="#B84DC5"/>
<path d="M42.9714 36.2285C42.9706 35.945 42.8824 35.6687 42.7188 35.4371C42.5552 35.2056 42.3241 35.0302 42.0571 34.9348V39.008C42.3739 39.0534 42.682 39.1458 42.9714 39.2822V36.2285Z" fill="#B84DC5"/>
<path d="M21.9428 34.9348C21.6759 35.0302 21.4448 35.2056 21.2812 35.4371C21.1175 35.6687 21.0293 35.945 21.0285 36.2285V39.2822C21.318 39.1458 21.6261 39.0534 21.9428 39.008V34.9348Z" fill="#B84DC5"/>
<path d="M21.9428 42.6285C21.9428 42.7498 21.991 42.866 22.0767 42.9518C22.1625 43.0375 22.2787 43.0857 22.4 43.0857H41.6C41.7212 43.0857 41.8375 43.0375 41.9232 42.9518C42.0089 42.866 42.0571 42.7498 42.0571 42.6285V42.1714H21.9428V42.6285Z" fill="#B84DC5"/>
<path d="M29.4263 31.1998H34.5691C34.6892 31.111 34.8023 31.0132 34.9074 30.9072C35.2908 30.5264 35.5948 30.0734 35.8019 29.5744C36.0091 29.0753 36.1153 28.5401 36.1143 27.9998V27.0855C36.3568 27.0855 36.5893 26.9892 36.7608 26.8177C36.9322 26.6463 37.0286 26.4137 37.0286 26.1712C37.0286 25.9287 36.9322 25.6962 36.7608 25.5247C36.5893 25.3533 36.3568 25.2569 36.1143 25.2569V24.7998H27.8857V25.2569C27.6432 25.2569 27.4107 25.3533 27.2392 25.5247C27.0677 25.6962 26.9714 25.9287 26.9714 26.1712C26.9714 26.4137 27.0677 26.6463 27.2392 26.8177C27.4107 26.9892 27.6432 27.0855 27.8857 27.0855V27.9998C27.8885 28.6142 28.0282 29.2202 28.2947 29.7738C28.5612 30.3273 28.9477 30.8145 29.4263 31.1998V31.1998ZM33.3714 26.6284C33.3714 26.5071 33.4196 26.3909 33.5053 26.3051C33.591 26.2194 33.7073 26.1712 33.8286 26.1712C33.9498 26.1712 34.0661 26.2194 34.1518 26.3051C34.2375 26.3909 34.2857 26.5071 34.2857 26.6284V27.5427C34.2857 27.6639 34.2375 27.7802 34.1518 27.8659C34.0661 27.9516 33.9498 27.9998 33.8286 27.9998C33.7073 27.9998 33.591 27.9516 33.5053 27.8659C33.4196 27.7802 33.3714 27.6639 33.3714 27.5427V26.6284ZM29.7143 26.6284C29.7143 26.5071 29.7624 26.3909 29.8482 26.3051C29.9339 26.2194 30.0502 26.1712 30.1714 26.1712C30.2927 26.1712 30.4089 26.2194 30.4947 26.3051C30.5804 26.3909 30.6286 26.5071 30.6286 26.6284V27.5427C30.6286 27.6639 30.5804 27.7802 30.4947 27.8659C30.4089 27.9516 30.2927 27.9998 30.1714 27.9998C30.0502 27.9998 29.9339 27.9516 29.8482 27.8659C29.7624 27.7802 29.7143 27.6639 29.7143 27.5427V26.6284ZM30.6286 29.3712C30.6286 29.4851 31.115 29.8284 32 29.8284C32.885 29.8284 33.3714 29.4851 33.3714 29.3712H34.2857C34.2857 30.1529 33.3033 30.7427 32 30.7427C30.6967 30.7427 29.7143 30.1529 29.7143 29.3712H30.6286Z" fill="#B84DC5"/>
<path d="M36.5714 20.9142V24.3428H37.4857V20.6856L32 18.3999L26.5143 20.6856L32 22.057L36.5714 20.9142Z" fill="#B84DC5"/>
</svg>
