<svg width="80" height="24" viewBox="0 0 80 24" fill="none" xmlns="http://www.w3.org/2000/svg">
<g clip-path="url(#clip0_93_23)">
<path d="M0.00937653 4.33228H2.79875V10.5295H8.68172V4.33228H11.4747V19.5445H8.68172V13.2171H2.79875V19.5445H0.00937653V4.33228ZM20.3114 14.5896C20.3114 15.8631 19.2739 16.8993 18.0008 16.8993C16.7272 16.8993 15.6903 15.8631 15.6903 14.5896V8.04024H13.045V14.5896C13.045 17.322 15.2683 19.5445 18.0008 19.5445C20.7327 19.5445 22.9558 17.322 22.9558 14.5896V8.04024H20.3114V14.5896ZM30.3405 8.11696C29.0283 8.11696 28.1123 8.49774 27.2278 9.36603V4.33228H24.5739V13.6612C24.5739 17.1531 27.0986 19.5445 29.935 19.5445C33.0883 19.5445 35.8511 17.1104 35.8511 13.8309C35.8511 10.5929 33.3034 8.11696 30.3405 8.11696ZM30.4064 17.0893C28.6081 17.0893 27.233 15.5874 27.233 13.8309C27.233 12.074 28.6081 10.5717 30.4064 10.5717C31.9302 10.5717 33.3061 12.074 33.3061 13.8309C33.3061 15.5874 31.9302 17.0893 30.4064 17.0893ZM40.3084 8.78556C40.3084 7.45149 41.1973 7.02853 42.1705 7.02853C42.9539 7.02853 43.9906 7.62103 44.6672 8.34071L46.402 6.30931C45.535 5.14556 43.7789 4.34118 42.3398 4.34118C39.4616 4.34118 37.3877 6.01306 37.3877 8.78556C37.3877 13.9277 43.7153 12.2977 43.7153 15.1765C43.7153 16.0643 42.848 16.8481 41.8539 16.8481C40.2873 16.8481 39.7792 16.0862 39.06 15.2818L37.1339 17.2707C38.362 18.7734 39.8852 19.5356 41.7053 19.5356C44.435 19.5356 46.6359 17.8426 46.6359 15.197C46.6359 9.48352 40.3084 11.2613 40.3084 8.78556ZM53.6225 7.9679C50.7864 7.9679 48.2614 10.3579 48.2614 13.8506V23.2035H50.9152V18.1459C51.7998 19.0135 52.7153 19.3949 54.028 19.3949C56.9908 19.3949 59.5387 16.9193 59.5387 13.6813C59.5387 10.4013 56.7752 7.9679 53.6225 7.9679ZM54.0941 16.9406C52.2959 16.9406 50.9206 15.4367 50.9206 13.6813C50.9206 11.9245 52.2959 10.4221 54.0941 10.4221C55.6175 10.4221 56.9936 11.9245 56.9936 13.6813C56.9936 15.4367 55.6175 16.9406 54.0941 16.9406ZM79.0733 17.0893C77.508 17.0893 77.0636 16.4124 77.0636 15.3751V10.7832H79.4967V8.45571H77.0636V5.38696L74.3769 6.5929V15.9465C74.3769 18.3381 76.0269 19.5445 78.2902 19.5445C78.6287 19.5445 79.0948 19.5226 79.3491 19.4599L80.0052 17.0477C79.7089 17.0682 79.3705 17.0893 79.0733 17.0893Z" fill="#45535E"/>
<path d="M72.0747 10.9185C71.5659 10.0432 70.8503 9.34144 69.9556 8.81316C69.287 8.42394 68.5937 8.17691 67.8125 8.07082V5.28957C68.5937 4.95785 69.0786 4.22363 69.0786 3.36707C69.0786 2.19957 68.1423 1.25347 66.9758 1.25347C65.8083 1.25347 64.8556 2.19957 64.8556 3.36707C64.8556 4.22363 65.3125 4.95785 66.0937 5.28957V8.07207C65.4687 8.16238 64.8206 8.35722 64.2287 8.6566C63.0198 7.73847 59.0558 4.72644 56.7369 2.96722C56.7919 2.76894 56.8342 2.56457 56.8342 2.34894C56.8342 1.05582 55.787 0.00769043 54.4934 0.00769043C53.1998 0.00769043 52.1531 1.05582 52.1531 2.34894C52.1531 3.64191 53.2009 4.69035 54.4945 4.69035C54.9358 4.69035 55.3439 4.56128 55.6961 4.3491L56.1855 4.72035L62.9098 9.56535C62.5544 9.89175 62.2233 10.263 61.9584 10.6796C61.4217 11.5288 61.0937 12.4632 61.0937 13.4824V13.695C61.0937 14.4105 61.2297 15.086 61.4612 15.7205C61.6652 16.2746 61.9633 16.7783 62.3325 17.2338L60.1008 19.471C59.7773 19.3506 59.4261 19.3259 59.089 19.3998C58.7519 19.4737 58.4432 19.6432 58.1998 19.8878C58.0313 20.0555 57.8978 20.255 57.8069 20.4746C57.716 20.6943 57.6697 20.9298 57.6705 21.1675C57.6706 21.6508 57.8589 22.105 58.2008 22.4468C58.3683 22.6154 58.5677 22.7491 58.7873 22.8401C59.0069 22.9312 59.2424 22.9777 59.4802 22.9771C59.7179 22.9777 59.9535 22.9311 60.1732 22.8401C60.3929 22.7491 60.5923 22.6154 60.76 22.4468C60.9284 22.2791 61.0619 22.0797 61.1528 21.8601C61.2437 21.6406 61.2903 21.4052 61.2897 21.1675C61.2897 20.9805 61.2608 20.798 61.2064 20.6246L63.5131 18.3175C63.8294 18.536 64.1709 18.7199 64.5381 18.8785C65.2623 19.1916 66.0617 19.3824 66.9366 19.3824H67.0969C68.0641 19.3824 68.9764 19.1552 69.8341 18.6905C70.7378 18.1994 71.4452 17.5278 71.9795 16.6705C72.5167 15.8108 72.8125 14.861 72.8125 13.816V13.7638C72.8125 12.7358 72.5745 11.7874 72.0747 10.9185ZM69.2562 15.758C68.6302 16.4538 67.9105 16.8824 67.0969 16.8824H66.9628C66.4981 16.8824 66.0436 16.7539 65.5986 16.5203C65.097 16.2632 64.7158 15.8963 64.4037 15.4318C64.0812 14.9758 63.9062 14.478 63.9062 13.9502V13.7899C63.9062 13.271 64.0058 12.7789 64.2567 12.3143C64.525 11.8063 64.8873 11.4113 65.3692 11.0972C65.8423 10.7853 66.3477 10.6324 66.9105 10.6324H66.9628C67.4731 10.6324 67.9562 10.733 68.4122 10.9663C68.8767 11.215 69.2562 11.5549 69.5505 12.0019C69.8362 12.4491 70.0063 12.9314 70.0609 13.4569C70.0695 13.5661 70.0739 13.678 70.0739 13.7849C70.0739 14.498 69.8014 15.1585 69.2562 15.758Z" fill="#F8761F"/>
</g>
<defs>
<clipPath id="clip0_93_23">
<rect width="80" height="23.296" fill="white"/>
</clipPath>
</defs>
</svg>
