<svg width="170" height="56" viewBox="0 0 170 56" fill="none" xmlns="http://www.w3.org/2000/svg">
<g filter="url(#filter0_d_263_326)">
<path d="M160 0H10.0003C6.68664 0 4.00037 2.68628 4.00037 5.99997V41.9998C4.00037 45.3135 6.68664 47.9998 10.0003 47.9998H160C163.313 47.9998 166 45.3135 166 41.9998V5.99997C166 2.68628 163.313 0 160 0Z" fill="black"/>
<path d="M160 0.959755C161.336 0.961299 162.617 1.49283 163.562 2.43773C164.507 3.38263 165.038 4.66373 165.039 5.99997V41.9998C165.038 43.336 164.507 44.6171 163.562 45.562C162.617 46.5069 161.336 47.0384 160 47.04H10.0003C8.66408 47.0385 7.383 46.5069 6.43815 45.562C5.4933 44.6171 4.96184 43.336 4.96036 41.9998V5.99997C4.96182 4.66371 5.49327 3.38259 6.43813 2.43769C7.38298 1.49279 8.66408 0.961273 10.0003 0.959755H160ZM160 0H10.0003C8.41048 0.00465369 6.88706 0.638286 5.76286 1.76249C4.63865 2.8867 4.00502 4.41011 4.00037 5.99997L4.00037 41.9998C4.00502 43.5896 4.63865 45.1131 5.76286 46.2373C6.88706 47.3615 8.41048 47.9951 10.0003 47.9998H160C161.589 47.9951 163.113 47.3615 164.237 46.2373C165.361 45.1131 165.995 43.5896 166 41.9998V5.99997C165.995 4.41011 165.361 2.8867 164.237 1.76249C163.113 0.638286 161.589 0.00465369 160 0Z" fill="#A6A6A6"/>
<path d="M60.9022 12.2919C60.924 12.7322 60.8559 13.1724 60.7022 13.5856C60.5485 13.9988 60.3122 14.3764 60.0079 14.6954C59.6669 15.0491 59.255 15.3268 58.7992 15.5104C58.3434 15.6939 57.854 15.7792 57.363 15.7606C56.8689 15.765 56.3788 15.6706 55.9217 15.4829C55.4646 15.2953 55.0496 15.0181 54.7011 14.6678C54.3526 14.3174 54.0777 13.9009 53.8924 13.4428C53.7072 12.9847 53.6154 12.4942 53.6225 12.0001C53.6155 11.5059 53.7073 11.0154 53.8925 10.5573C54.0778 10.0991 54.3527 9.68263 54.7012 9.33224C55.0496 8.98185 55.4646 8.70464 55.9217 8.51688C56.3788 8.32913 56.8689 8.23462 57.363 8.23891C57.8711 8.23737 58.374 8.34009 58.8408 8.54071C59.2743 8.71644 59.6602 8.99208 59.967 9.34518L59.3341 9.97854C59.0929 9.69468 58.7898 9.47003 58.448 9.32191C58.1063 9.17379 57.735 9.10617 57.363 9.12427C56.9885 9.12233 56.6175 9.19599 56.2721 9.34084C55.9268 9.4857 55.6142 9.69876 55.3532 9.96727C55.0921 10.2358 54.8879 10.5542 54.7528 10.9035C54.6177 11.2528 54.5546 11.6258 54.567 12.0001C54.5581 12.5607 54.7159 13.1113 55.0203 13.5822C55.3247 14.0531 55.7621 14.4229 56.277 14.6448C56.792 14.8668 57.3612 14.9308 57.9125 14.8288C58.4639 14.7268 58.9725 14.4634 59.374 14.072C59.7434 13.6738 59.9576 13.1563 59.9774 12.6135H57.363V11.7487H60.8518C60.8847 11.9279 60.9016 12.1097 60.9022 12.2919Z" fill="white" stroke="white" stroke-width="0.2" stroke-miterlimit="10"/>
<path d="M66.4333 9.28466H63.1544V11.5674H66.1111V12.4324H63.1544V14.7151H66.4333V15.5999H62.2298V8.3999H66.4333V9.28466Z" fill="white" stroke="white" stroke-width="0.2" stroke-miterlimit="10"/>
<path d="M70.3345 15.5999H69.4087V9.28466H67.3977V8.3999H72.3454V9.28466H70.3345V15.5999Z" fill="white" stroke="white" stroke-width="0.2" stroke-miterlimit="10"/>
<path d="M75.9255 15.5999V8.3999H76.8501V15.5999H75.9255Z" fill="white" stroke="white" stroke-width="0.2" stroke-miterlimit="10"/>
<path d="M80.9539 15.5999H80.0281V9.28466H78.0173V8.3999H82.9649V9.28466H80.9539V15.5999Z" fill="white" stroke="white" stroke-width="0.2" stroke-miterlimit="10"/>
<path d="M92.3311 14.6694C91.6303 15.3681 90.6811 15.7605 89.6915 15.7605C88.7019 15.7605 87.7527 15.3681 87.0519 14.6694C86.7052 14.3183 86.4326 13.901 86.2504 13.4424C86.0682 12.9838 85.9801 12.4932 85.9913 11.9999C85.9801 11.5066 86.0682 11.016 86.2504 10.5574C86.4326 10.0988 86.7052 9.68156 87.0519 9.3304C87.3982 8.98393 87.8096 8.70916 88.2623 8.52185C88.715 8.33453 89.2002 8.23834 89.6901 8.23877C90.18 8.23921 90.6651 8.33626 91.1175 8.52438C91.5698 8.7125 91.9807 8.98799 92.3264 9.33508C92.6734 9.68531 92.9464 10.1017 93.1294 10.5594C93.3124 11.0172 93.4016 11.507 93.3917 11.9999C93.4026 12.4932 93.3143 12.9837 93.1321 13.4422C92.9499 13.9008 92.6776 14.3181 92.3311 14.6694ZM87.735 14.0665C88.254 14.5847 88.9575 14.8757 89.6909 14.8757C90.4243 14.8757 91.1277 14.5847 91.6468 14.0665C91.9129 13.794 92.1211 13.4704 92.2586 13.1152C92.3962 12.76 92.4603 12.3806 92.4471 11.9999C92.4603 11.6192 92.3962 11.2398 92.2586 10.8846C92.1211 10.5294 91.9129 10.2058 91.6468 9.93328C91.1277 9.41513 90.4243 9.12411 89.6909 9.12411C88.9575 9.12411 88.254 9.41513 87.735 9.93328C87.4692 10.206 87.2614 10.5297 87.1241 10.8849C86.9867 11.24 86.9227 11.6193 86.9358 11.9999C86.9227 12.3805 86.9867 12.7598 87.1241 13.115C87.2614 13.4701 87.4692 13.7938 87.735 14.0665Z" fill="white" stroke="white" stroke-width="0.2" stroke-miterlimit="10"/>
<path d="M94.69 15.5999V8.3999H95.8162L99.3154 14.0009H99.3552L99.3154 12.6133V8.3999H100.241V15.5999H99.2756L95.6146 9.72758H95.5748L95.6146 11.1151V15.5999H94.69Z" fill="white" stroke="white" stroke-width="0.2" stroke-miterlimit="10"/>
<path d="M85.7629 26.1021C84.7543 26.1059 83.7695 26.4085 82.9327 26.9717C82.0959 27.5348 81.4448 28.3332 81.0614 29.2662C80.6781 30.1991 80.5798 31.2247 80.7789 32.2134C80.978 33.2022 81.4657 34.1098 82.1802 34.8216C82.8948 35.5335 83.8042 36.0177 84.7937 36.213C85.7832 36.4084 86.8084 36.3062 87.7399 35.9193C88.6714 35.5324 89.4673 34.8782 90.0273 34.0393C90.5872 33.2004 90.8861 32.2144 90.8861 31.2058C90.896 30.5312 90.7701 29.8615 90.5159 29.2365C90.2617 28.6116 89.8844 28.0441 89.4064 27.5679C88.9284 27.0918 88.3595 26.7166 87.7336 26.4648C87.1077 26.213 86.4375 26.0896 85.7629 26.1021ZM85.7629 34.299C85.1418 34.3433 84.5217 34.1996 83.9834 33.8865C83.4451 33.5734 83.0135 33.1056 82.7448 32.5438C82.4762 31.982 82.3829 31.3523 82.4771 30.7368C82.5712 30.1212 82.8486 29.5483 83.273 29.0926C83.6973 28.6368 84.2491 28.3194 84.8564 28.1817C85.4637 28.0439 86.0984 28.0922 86.6779 28.3202C87.2573 28.5483 87.7547 28.9455 88.1053 29.4601C88.4559 29.9748 88.6434 30.5831 88.6434 31.2058C88.6622 31.5992 88.6022 31.9924 88.4668 32.3623C88.3314 32.7321 88.1233 33.0711 87.8549 33.3594C87.5865 33.6476 87.2632 33.8792 86.9039 34.0406C86.5446 34.202 86.1567 34.2899 85.7629 34.299ZM74.5869 26.1021C73.5783 26.1059 72.5934 26.4085 71.7566 26.9716C70.9198 27.5347 70.2687 28.3331 69.8853 29.2661C69.502 30.199 69.4037 31.2246 69.6028 32.2134C69.8019 33.2021 70.2895 34.1098 71.004 34.8216C71.7186 35.5335 72.628 36.0176 73.6175 36.213C74.607 36.4084 75.6323 36.3062 76.5637 35.9193C77.4952 35.5324 78.2912 34.8782 78.8511 34.0393C79.4111 33.2004 79.7099 32.2144 79.7099 31.2058C79.7198 30.5312 79.5939 29.8615 79.3398 29.2365C79.0856 28.6116 78.7083 28.0441 78.2303 27.568C77.7523 27.0918 77.1835 26.7167 76.5575 26.4648C75.9316 26.213 75.2615 26.0897 74.5869 26.1021ZM74.5869 34.299C73.9658 34.3433 73.3457 34.1996 72.8074 33.8865C72.269 33.5734 71.8375 33.1056 71.5688 32.5438C71.3001 31.982 71.2068 31.3523 71.301 30.7368C71.3952 30.1212 71.6726 29.5483 72.0969 29.0926C72.5213 28.6368 73.0731 28.3194 73.6804 28.1817C74.2877 28.0439 74.9224 28.0922 75.5018 28.3202C76.0813 28.5483 76.5787 28.9455 76.9293 29.4601C77.2799 29.9748 77.4674 30.5831 77.4674 31.2058C77.4862 31.5992 77.4262 31.9924 77.2908 32.3623C77.1554 32.7321 76.9473 33.0712 76.6789 33.3594C76.4105 33.6476 76.0872 33.8793 75.7279 34.0406C75.3686 34.202 74.9806 34.2899 74.5869 34.299ZM61.2924 27.6681V29.8333H66.4736C66.3989 30.8488 65.9833 31.8094 65.2943 32.5592C64.775 33.0884 64.1507 33.5029 63.4614 33.7759C62.7721 34.049 62.0332 34.1745 61.2924 34.1444C59.778 34.1239 58.3325 33.5079 57.2689 32.4297C56.2052 31.3515 55.6088 29.8979 55.6088 28.3833C55.6088 26.8687 56.2052 25.4151 57.2689 24.3369C58.3325 23.2587 59.778 22.6428 61.2924 22.6223C62.7471 22.6032 64.1504 23.159 65.1977 24.1688L66.7249 22.6416C66.0104 21.9342 65.1618 21.3766 64.229 21.0015C63.2961 20.6263 62.2977 20.4412 61.2924 20.457C60.2418 20.4417 59.1986 20.6354 58.2236 21.0269C57.2485 21.4183 56.361 21.9998 55.6126 22.7373C54.8642 23.4748 54.27 24.3538 53.8644 25.3231C53.4587 26.2923 53.2498 27.3326 53.2498 28.3833C53.2498 29.434 53.4587 30.4743 53.8644 31.4435C54.27 32.4128 54.8642 33.2918 55.6126 34.0293C56.361 34.7669 57.2485 35.3483 58.2236 35.7397C59.1986 36.1312 60.2418 36.3249 61.2924 36.3096C62.3189 36.3522 63.3428 36.176 64.2961 35.7927C65.2493 35.4094 66.1102 34.8278 66.8215 34.0864C68.0844 32.7079 68.7575 30.8899 68.6968 29.0213C68.7018 28.5676 68.6629 28.1144 68.5807 27.6681H61.2924ZM115.662 29.3499C115.355 28.4255 114.772 27.6179 113.99 27.0368C113.208 26.4557 112.267 26.1294 111.293 26.1021C110.637 26.1062 109.989 26.2432 109.388 26.5048C108.786 26.7665 108.244 27.1473 107.794 27.6244C107.345 28.1014 106.996 28.6648 106.77 29.2804C106.544 29.8959 106.445 30.5509 106.479 31.2058C106.464 31.8768 106.585 32.5439 106.834 33.1673C107.083 33.7906 107.455 34.3574 107.927 34.8338C108.4 35.3102 108.964 35.6865 109.586 35.94C110.207 36.1936 110.873 36.3193 111.544 36.3096C112.385 36.3143 113.214 36.11 113.956 35.7153C114.699 35.3205 115.331 34.7475 115.797 34.0478L114.057 32.8878C113.797 33.3207 113.428 33.6784 112.988 33.9258C112.547 34.1732 112.05 34.3018 111.544 34.299C111.024 34.3189 110.51 34.1821 110.069 33.9063C109.628 33.6306 109.28 33.2286 109.07 32.7525L115.894 29.93L115.662 29.3499ZM108.702 31.0513C108.678 30.6798 108.729 30.3073 108.85 29.9555C108.972 29.6037 109.163 29.2797 109.411 29.0024C109.66 28.7252 109.961 28.5003 110.297 28.3409C110.634 28.1815 110.998 28.0908 111.37 28.0741C111.757 28.0486 112.144 28.1377 112.48 28.3302C112.817 28.5227 113.09 28.8102 113.265 29.1567L108.702 31.0513ZM103.154 36.0003H105.397V20.9984H103.154V36.0003ZM99.4808 27.2427H99.4035C99.0625 26.8723 98.6465 26.5789 98.183 26.3822C97.7196 26.1855 97.2195 26.09 96.7162 26.1021C95.4002 26.1581 94.1567 26.7203 93.2453 27.6713C92.3339 28.6223 91.8251 29.8887 91.8251 31.2059C91.8251 32.5231 92.3339 33.7894 93.2453 34.7404C94.1567 35.6914 95.4002 36.2536 96.7162 36.3096C97.2215 36.3231 97.7237 36.2263 98.1878 36.026C98.6518 35.8256 99.0667 35.5266 99.4035 35.1497H99.4808V35.8843C99.4808 37.837 98.4369 38.8809 96.7549 38.8809C96.1943 38.8674 95.6504 38.6874 95.1925 38.3638C94.7347 38.0402 94.3835 37.5875 94.1838 37.0636L92.2311 37.8756C92.5991 38.7716 93.2263 39.5373 94.0323 40.0746C94.8382 40.6119 95.7862 40.8963 96.7549 40.8914C99.3842 40.8914 101.607 39.3449 101.607 35.575V26.4114H99.4808V27.2427ZM96.9097 34.299C96.1345 34.2333 95.4124 33.879 94.886 33.3061C94.3597 32.7333 94.0677 31.9838 94.0677 31.2059C94.0677 30.428 94.3597 29.6784 94.886 29.1056C95.4124 28.5328 96.1345 28.1784 96.9097 28.1127C97.2953 28.1315 97.6732 28.2278 98.0208 28.3958C98.3684 28.5638 98.6787 28.8 98.933 29.0905C99.1874 29.3809 99.3807 29.7196 99.5014 30.0864C99.622 30.4531 99.6676 30.8404 99.6354 31.2251C99.6656 31.6075 99.6183 31.992 99.4965 32.3557C99.3746 32.7193 99.1806 33.0547 98.9261 33.3416C98.6717 33.6286 98.3619 33.8613 98.0154 34.0258C97.669 34.1903 97.2929 34.2832 96.9097 34.299ZM126.167 20.9987H120.801V36.0003H123.04V30.3166H126.167C126.8 30.3513 127.434 30.2566 128.029 30.0381C128.625 29.8197 129.169 29.4821 129.63 29.0461C130.09 28.61 130.457 28.0847 130.708 27.5021C130.959 26.9195 131.088 26.2919 131.088 25.6576C131.088 25.0234 130.959 24.3958 130.708 23.8132C130.457 23.2306 130.09 22.7052 129.63 22.2692C129.169 21.8332 128.625 21.4956 128.029 21.2772C127.434 21.0587 126.8 20.9639 126.167 20.9987ZM126.225 28.2289H123.04V23.0865H126.225C126.567 23.0794 126.907 23.1407 127.225 23.2667C127.543 23.3928 127.833 23.581 128.077 23.8205C128.322 24.0599 128.516 24.3458 128.649 24.6612C128.781 24.9767 128.85 25.3155 128.85 25.6577C128.85 25.9999 128.781 26.3387 128.649 26.6541C128.516 26.9696 128.322 27.2555 128.077 27.4949C127.833 27.7344 127.543 27.9226 127.225 28.0487C126.907 28.1747 126.567 28.236 126.225 28.2289ZM140.063 26.0745C139.245 26.0268 138.432 26.2187 137.722 26.6267C137.013 27.0347 136.437 27.641 136.067 28.3712L138.055 29.2011C138.252 28.8387 138.551 28.5416 138.914 28.3462C139.278 28.1508 139.69 28.0656 140.101 28.1009C140.669 28.0455 141.236 28.2175 141.677 28.5793C142.119 28.9411 142.399 29.4631 142.456 30.0309V30.1853C141.737 29.8033 140.935 29.6045 140.12 29.6063C137.978 29.6063 135.797 30.7837 135.797 32.9838C135.818 33.4475 135.932 33.9023 136.132 34.3212C136.332 34.7401 136.614 35.1145 136.961 35.4224C137.309 35.7302 137.714 35.9651 138.154 36.1131C138.594 36.2611 139.059 36.3192 139.522 36.2841C140.086 36.3173 140.648 36.1987 141.151 35.9407C141.653 35.6828 142.077 35.2948 142.379 34.8173H142.456V35.9753H144.617V30.224C144.617 27.5606 142.629 26.0745 140.063 26.0745ZM139.792 34.2962C139.059 34.2962 138.036 33.9296 138.036 33.0224C138.036 31.8645 139.31 31.4205 140.41 31.4205C141.124 31.4015 141.831 31.5748 142.456 31.9223C142.373 32.573 142.058 33.1719 141.569 33.6083C141.079 34.0447 140.448 34.289 139.792 34.2962ZM152.492 26.4026L149.925 32.9066H149.847L147.184 26.4026H144.772L148.767 35.4928L146.489 40.5493H148.825L154.981 26.4026H152.492ZM132.323 36.0003H134.562V20.9987H132.323V36.0003Z" fill="white"/>
<path d="M16.5227 9.04562C16.1292 9.5161 15.9305 10.1192 15.9673 10.7315V37.2707C15.9304 37.8829 16.1291 38.4861 16.5227 38.9565L16.6115 39.0431L31.4782 24.1765V23.8257L16.6115 8.9585L16.5227 9.04562Z" fill="url(#paint0_linear_263_326)"/>
<path d="M36.4334 29.134L31.4782 24.1764V23.8256L36.4346 18.8691L36.5464 18.9329L42.4177 22.269C44.0948 23.2218 44.0948 24.7808 42.4177 25.7342L36.5464 29.0703L36.4334 29.134Z" fill="url(#paint1_linear_263_326)"/>
<path d="M36.5464 29.0696L31.4782 24.001L16.5227 38.9564C16.8644 39.2578 17.3008 39.4301 17.7562 39.4436C18.2116 39.457 18.6574 39.3107 19.0164 39.0301L36.5464 29.0696Z" fill="url(#paint2_linear_263_326)"/>
<path d="M36.5464 18.9324L19.0164 8.97199C18.6574 8.6913 18.2116 8.54501 17.7562 8.55847C17.3008 8.57193 16.8644 8.74428 16.5227 9.04567L31.4782 24.0012L36.5464 18.9324Z" fill="url(#paint3_linear_263_326)"/>
<path opacity="0.2" d="M36.4346 28.9585L19.0164 38.8552C18.6713 39.1179 18.2501 39.2613 17.8164 39.2636C17.3826 39.2659 16.9599 39.1271 16.6121 38.868L16.5227 38.9574L16.6115 39.044L16.6121 39.0434C16.9599 39.3025 17.3826 39.4414 17.8164 39.4391C18.2501 39.4368 18.6713 39.2934 19.0164 39.0305L36.5464 29.0701L36.4346 28.9585Z" fill="black"/>
<path opacity="0.12" d="M16.5227 38.7821C16.1292 38.3116 15.9305 37.7084 15.9673 37.0962V37.2715C15.9305 37.8838 16.1292 38.4869 16.5227 38.9574L16.6121 38.868L16.5227 38.7821Z" fill="black"/>
<path opacity="0.12" d="M42.4177 25.5582L36.4346 28.958L36.5464 29.0696L42.4177 25.7335C42.7631 25.5837 43.0619 25.3439 43.2832 25.0393C43.5044 24.7346 43.6399 24.3763 43.6756 24.0015C43.6014 24.3409 43.449 24.6583 43.2307 24.9285C43.0123 25.1988 42.7339 25.4144 42.4177 25.5582Z" fill="black"/>
<path opacity="0.25" d="M19.0164 9.14811L42.4177 22.444C42.7341 22.5879 43.0125 22.8035 43.2309 23.0739C43.4493 23.3442 43.6016 23.6618 43.6756 24.0014C43.6402 23.6264 43.5048 23.2679 43.2835 22.9631C43.0622 22.6583 42.7632 22.4185 42.4177 22.2687L19.0164 8.97279C17.3393 8.01987 15.9673 8.81139 15.9673 10.7323V10.9077C15.9673 8.98683 17.3393 8.19531 19.0164 9.14811Z" fill="white"/>
</g>
<defs>
<filter id="filter0_d_263_326" x="0.000366211" y="0" width="169.999" height="56" filterUnits="userSpaceOnUse" color-interpolation-filters="sRGB">
<feFlood flood-opacity="0" result="BackgroundImageFix"/>
<feColorMatrix in="SourceAlpha" type="matrix" values="0 0 0 0 0 0 0 0 0 0 0 0 0 0 0 0 0 0 127 0" result="hardAlpha"/>
<feOffset dy="4"/>
<feGaussianBlur stdDeviation="2"/>
<feComposite in2="hardAlpha" operator="out"/>
<feColorMatrix type="matrix" values="0 0 0 0 0 0 0 0 0 0 0 0 0 0 0 0 0 0 0.25 0"/>
<feBlend mode="normal" in2="BackgroundImageFix" result="effect1_dropShadow_263_326"/>
<feBlend mode="normal" in="SourceGraphic" in2="effect1_dropShadow_263_326" result="shape"/>
</filter>
<linearGradient id="paint0_linear_263_326" x1="30.1598" y1="10.4517" x2="10.021" y2="30.5905" gradientUnits="userSpaceOnUse">
<stop stop-color="#00A0FF"/>
<stop offset="0.00657" stop-color="#00A1FF"/>
<stop offset="0.2601" stop-color="#00BEFF"/>
<stop offset="0.5122" stop-color="#00D2FF"/>
<stop offset="0.7604" stop-color="#00DFFF"/>
<stop offset="1" stop-color="#00E3FF"/>
</linearGradient>
<linearGradient id="paint1_linear_263_326" x1="44.6013" y1="24.0016" x2="15.5652" y2="24.0016" gradientUnits="userSpaceOnUse">
<stop stop-color="#FFE000"/>
<stop offset="0.4087" stop-color="#FFBD00"/>
<stop offset="0.7754" stop-color="#FFA500"/>
<stop offset="1" stop-color="#FF9C00"/>
</linearGradient>
<linearGradient id="paint2_linear_263_326" x1="33.7924" y1="26.7551" x2="6.48263" y2="54.0649" gradientUnits="userSpaceOnUse">
<stop stop-color="#FF3A44"/>
<stop offset="1" stop-color="#C31162"/>
</linearGradient>
<linearGradient id="paint3_linear_263_326" x1="12.757" y1="0.211525" x2="24.952" y2="12.4065" gradientUnits="userSpaceOnUse">
<stop stop-color="#32A071"/>
<stop offset="0.0685" stop-color="#2DA771"/>
<stop offset="0.4762" stop-color="#15CF74"/>
<stop offset="0.8009" stop-color="#06E775"/>
<stop offset="1" stop-color="#00F076"/>
</linearGradient>
</defs>
</svg>
